<svg>
    <symbol id="telegram" xmlns="http://www.w3.org/2000/svg" enable-background="new 0 0 24 24" viewBox="0 0 24 24"><path fill="#039be5" d="m9.417 15.181-.397 5.584c.568 0 .814-.244 1.109-.537l2.663-2.545 5.518 4.041c1.012.564 1.725.267 1.998-.931l3.622-16.972.001-.001c.321-1.496-.541-2.081-1.527-1.714l-21.29 8.151c-1.453.564-1.431 1.374-.247 1.741l5.443 1.693 12.643-7.911c.595-.394 1.136-.176.691.218z"/></symbol>

    <symbol id="github" xmlns="http://www.w3.org/2000/svg" viewBox="0 0 24 24"><path fill="#6563ff" d="M20.11554,5.90131a3.88274,3.88274,0,0,0-.26-.31,4.41253,4.41253,0,0,0,.21-.76,5.28351,5.28351,0,0,0-.35-2.8s-1.12-.35-3.69,1.38a12.47675,12.47675,0,0,0-3.35-.45,12.60429,12.60429,0,0,0-3.36.45c-2.57-1.75-3.69-1.38-3.69-1.38a5.26343,5.26343,0,0,0-.35,2.77,4.21027,4.21027,0,0,0,.22.79c-.09.1-.18.21-.26.31a5.13973,5.13973,0,0,0-1.12,3.3,7.68624,7.68624,0,0,0,.04.85c.31994,4.43,3.27,5.46,6.08,5.78a2.55759,2.55759,0,0,0-.77,1.39,4.02183,4.02183,0,0,0-.13,1.09v1.30957c-1.11822.09937-2.26648-.06335-2.62219-1.06134a5.69461,5.69461,0,0,0-1.83447-2.41211,1.1789,1.1789,0,0,1-.169-.1123,1.00141,1.00141,0,0,0-.93066-.64551H3.77441a.99965.99965,0,0,0-1,.99512c-.0039.8125.80909,1.33691,1.14258,1.51562a4.4665,4.4665,0,0,1,.92285,1.3584c.36426,1.02344,1.4292,2.57812,4.46582,2.376.001.03515.002.06835.00245.09863l.00439.26758a.99974.99974,0,0,0,1,1l.00311-.00061V23.001h4.71112a.99974.99974,0,0,0,1-1s.00733-3.15967.00733-3.68964a4.02421,4.02421,0,0,0-.13-1.09l-.00183-.0061.00336.0061c-.00861-.035-.02173-.06353-.03113-.09747A2.53213,2.53213,0,0,0,15.134,15.8313l.0116.02087c-.00684-.00616-.01324-.01489-.02008-.02087,2.81-.32,5.74-1.37,6.06-5.78a7.68675,7.68675,0,0,0,.04-.85A5.2306,5.2306,0,0,0,20.11554,5.90131Z"/></symbol>

    <symbol id="email" xmlns="http://www.w3.org/2000/svg" viewBox="0 0 64 64"><path fill="#2962ff" d="M60,28a2,2,0,0,0-2,0L32,42.7,6,28a2,2,0,0,0-3,1.74V47a6,6,0,0,0,6,6H55a6,6,0,0,0,6-6V29.75A2,2,0,0,0,60,28Z"/><path fill="#2962ff" d="M55,11H9a6,6,0,0,0-6,6v3.75a2,2,0,0,0,1,1.74L31,37.74a2,2,0,0,0,2,0L60,22.49a2,2,0,0,0,1-1.74V17A6,6,0,0,0,55,11Z"/></symbol>

    <symbol id="discord" xmlns="http://www.w3.org/2000/svg" enable-background="new 0 0 100 100" viewBox="0 0 100 100"><path fill="#6665d2" d="M85.22,24.958c-11.459-8.575-22.438-8.334-22.438-8.334l-1.122,1.282c13.623,4.087,19.954,10.097,19.954,10.097c-19.491-10.731-44.317-10.654-64.59,0c0,0,6.571-6.331,20.996-10.418l-0.801-0.962c0,0-10.899-0.24-22.438,8.334c0,0-11.54,20.755-11.54,46.319c0,0,6.732,11.54,24.442,12.101c0,0,2.965-3.526,5.369-6.571
    c-10.177-3.045-14.024-9.376-14.024-9.376c6.394,4.001,12.859,6.505,20.916,8.094c13.108,2.698,29.413-0.076,41.591-8.094
    c0,0-4.007,6.491-14.505,9.456c2.404,2.965,5.289,6.411,5.289,6.411c17.71-0.561,24.441-12.101,24.441-12.02
    C96.759,45.713,85.22,24.958,85.22,24.958z M35.055,63.824c-4.488,0-8.174-3.927-8.174-8.815
    c0.328-11.707,16.102-11.671,16.348,0C43.229,59.897,39.622,63.824,35.055,63.824z M64.304,63.824
    c-4.488,0-8.174-3.927-8.174-8.815c0.36-11.684,15.937-11.689,16.348,0C72.478,59.897,68.872,63.824,64.304,63.824z"/></symbol>

</svg>








